<?xml version="1.0" standalone="no"?>
<!DOCTYPE svg PUBLIC "-//W3C//DTD SVG 20010904//EN"
 "http://www.w3.org/TR/2001/REC-SVG-20010904/DTD/svg10.dtd">
<svg version="1.0" xmlns="http://www.w3.org/2000/svg"
 width="137.000000pt" height="137.000000pt" viewBox="0 0 137.000000 137.000000"
 preserveAspectRatio="xMidYMid meet">
<metadata>
Created by potrace 1.11, written by Peter Selinger 2001-2013
</metadata>
<g transform="translate(0.000000,137.000000) scale(0.100000,-0.100000)"
fill="#000000" stroke="none">
<path d="M635 1341 c-99 -15 -193 -33 -208 -39 -16 -7 -38 -12 -50 -12 -53 0
-70 -16 -178 -157 -61 -80 -118 -158 -127 -174 -10 -15 -30 -46 -45 -68 l-29
-40 28 -203 c15 -112 31 -204 35 -206 5 -2 11 -30 15 -64 l7 -60 156 -117 c86
-65 167 -124 181 -131 14 -7 41 -25 61 -41 l35 -28 205 29 c112 16 220 33 239
39 19 6 47 11 62 11 23 0 45 24 153 165 69 90 126 168 126 172 1 5 16 29 35
54 20 27 34 59 34 75 0 49 -40 326 -55 384 -8 30 -17 71 -20 90 -5 31 -22 47
-167 155 -89 66 -169 123 -179 127 -10 4 -37 21 -60 37 -23 17 -49 30 -58 30
-9 -1 -97 -14 -196 -28z m-127 -153 l63 -51 -58 -34 c-96 -55 -161 -76 -247
-81 l-80 -4 18 28 c45 71 123 167 146 180 51 27 90 18 158 -38z m657 -116 c57
-43 75 -72 75 -122 0 -28 -10 -46 -53 -94 l-53 -60 -28 50 c-53 94 -75 160
-82 244 l-7 82 49 -31 c27 -17 71 -48 99 -69z m-466 24 c9 -7 54 -26 101 -41
147 -48 190 -66 190 -80 0 -8 29 -73 65 -146 57 -115 63 -134 51 -148 -7 -9
-21 -41 -31 -71 -57 -178 -76 -220 -103 -226 -15 -4 -84 -33 -154 -66 -117
-55 -129 -58 -150 -45 -13 8 -80 34 -151 57 -114 39 -128 46 -133 69 -3 14
-33 83 -66 153 -48 101 -58 131 -49 142 6 7 33 73 59 146 26 73 54 136 62 140
72 36 277 129 284 130 5 0 17 -6 25 -14z m-405 -633 c35 -71 58 -161 54 -221
l-3 -54 -105 79 c-93 69 -105 82 -112 117 -9 44 -3 57 65 139 l40 48 18 -30
c10 -17 29 -52 43 -78z m827 -191 c-72 -106 -98 -131 -142 -138 -29 -5 -44 1
-101 43 -37 26 -68 53 -68 59 0 7 35 30 78 52 83 43 160 63 269 71 20 1 16 -8
-36 -87z"/>
</g>
</svg>
